#!OML:ASF F:\VICON\USERDATA\INSTALL\rory3\rory3.ASF
:FULLY-SPECIFIED
:DEGREES
35
root -0.428102549188083 18.522358744084144 10.749958347664496 -0.9660949113738926 0.7025389567738232 -5.778567677724969
lfemur -27.742889375336173 5.718395890206534 -13.791645814916128
ltibia 85.3574404272895
lfoot 1.550991182531496 -6.960152597816311
ltoes -10.835520813589786
rfemur -8.354687422258852 5.281984097150101 33.680170494265425
rtibia 40.549593638778234
rfoot -9.338280698302977 -6.350082485654697
rtoes 11.51510588933529
lowerback 12.985183145482523 0.83903187036467 4.232208071039151
upperback -0.0864925818362633 1.857519015125038 2.755735122480659
thorax -7.464241007799472 0.8167458007593871 -0.26947647138835196
lowerneck -18.043800689466153 -3.6991977530234426 -1.7268179468648666
upperneck 18.33021402170731 -4.972694294499462 1.7734011823978664
head 8.79334392137639 -2.279815045360304 0.2896994686831072
lclavicle -2.78245098826479e-15 3.1970639537367915e-16
lhumerus -43.523994597907894 -8.791661570961763 92.8305158077293
lradius 69.27664782596104
lwrist 19.734573368086053
lhand -25.385664744012463 13.535366692580643
lfingers 7.125019999999999
lthumb 1.1390114915117397 43.5065575409185
rclavicle -2.78245098826479e-15 3.1970639537367915e-16
rhumerus -38.96645343803131 -4.678599388600654 -88.58176733652576
rradius 63.907799272864374
rwrist -1.7361292292483386
rhand -16.421865389784806 29.99248926424852
rfingers 7.125019999999999
rthumb 9.79320712785841 0.32930339877335735
36
root -0.41729542930766594 18.446099793889847 10.802434742365707 -0.5532953154110192 -0.49615600586530595 -6.118322632074894
lfemur -32.46664940986253 6.0263868771549935 -14.012213410083973
ltibia 78.7212666910377
lfoot -2.7805821177261074 -3.682963238148166
ltoes -9.632371762451609
rfemur -4.717774344534471 5.426786267519551 34.43969551658233
rtibia 39.556962384640556
rfoot -11.108339822488968 -6.55056913263602
rtoes 10.493160534840076
lowerback 13.011804208573478 1.385354869097948 5.191497877313478
upperback -0.13866462315858238 2.710416108035968 2.462185237696819
thorax -7.455772451306455 1.1856549178136386 -1.2771585878879674
lowerneck -18.049535317286974 -3.7721964682201463 -1.664570667859246
upperneck 18.038577708420654 -5.121163590239612 1.8437621845935421
head 8.716104987098522 -2.327256963283288 0.2854582822693487
lclavicle -2.7088946630763908e-15 3.712300503538355e-16
lhumerus -45.95628019094795 -8.026413331829815 92.61145439881925
lradius 69.14280067215607
lwrist 20.573735473064403
lhand -25.50115607359209 12.905990946271606
lfingers 7.125019999999999
lthumb 1.0274728473867505 42.87839689766573
rclavicle -2.7088946630763908e-15 3.712300503538355e-16
rhumerus -36.56215638545199 -1.7525985141514293 -89.92344108984015
rradius 66.2135629829278
rwrist -3.3205379394156065
rhand -16.925389405398334 29.641888881476348
rfingers 7.125019999999999
rthumb 9.307285000385589 0.053531246592097625
37
root -0.38422166054903634 18.302635557520787 12.274988070503024 0.2850050579481067 -1.625011772438603 -6.669661109398735
lfemur -35.48345904426606 4.6321215522806 -13.481689867083901
ltibia 66.27210044099883
lfoot -4.283832744239331 -0.601143832481811
ltoes -8.615841566958409
rfemur -1.1072054945940764 5.54373544022117 35.29761099435188
rtibia 36.22106185076084
rfoot -13.32344810605241 -6.83815462097313
rtoes 8.833302548617734
lowerback 12.844410512321181 1.7983817208742932 6.272022271961004
upperback -0.302283490663382 3.408862448156886 2.3608987574231928
thorax -7.416214207348061 1.4795396974169575 -2.2089539405468335
lowerneck -18.416159442406535 -3.831974593745857 -1.649611986779065
upperneck 17.6869080733988 -5.202383659614708 1.8256106028011856
head 8.655877885112245 -2.357102421801808 0.2612831105514689
lclavicle -2.9205463468235494e-15 2.2272438090498843e-16
lhumerus -48.10189191523496 -7.47593776500426 92.65148538006355
lradius 68.72528326169355
lwrist 20.666343757084704
lhand -25.84400587562074 12.072666571122845
lfingers 7.125019999999999
lthumb 0.6963715432869649 42.046203029296564
rclavicle -2.9205463468235494e-15 2.2272438090498843e-16
rhumerus -34.12765135107658 1.0327084148434515 -91.01718248217274
rradius 68.71695751190713
rwrist -4.949743221263249
rhand -17.439987658849525 29.972945881781886
rfingers 7.125019999999999
rthumb 8.810692257297264 0.39609466519347636
38
root -0.32938932632187196 18.15079735614814 13.13683559901622 1.3778239685501243 -2.4423908475336322 -7.025097695535525
lfemur -35.65260351742316 1.5970138592955654 -11.911770369192098
ltibia 49.721735051925705
lfoot -3.823266636771189 2.8799847155244787
ltoes -8.353338997350336
rfemur 4.069781418452237 5.906609615486897 36.28567487010518
rtibia 33.891091710459726
rfoot -14.574024061641655 -6.947413603616465
rtoes 6.974994186901943
lowerback 12.502199486159373 2.289191671863354 7.323064937818373
upperback -0.4085906588093419 4.181899227659438 2.356979344798322
thorax -7.245746550659583 1.8147668445026999 -2.8024232247534018
lowerneck -18.87346318383923 -3.80106103114168 -1.5159637768685617
upperneck 17.277511283249936 -5.1617910581580535 1.886969460068385
head 8.586855430365107 -2.3289209570562526 0.2583631596515612
lclavicle -1.9806918087683668e-15 8.81551503550641e-16
lhumerus -49.54019367861347 -6.312978426597111 92.71547679703502
lradius 68.4091827534068
lwrist 20.583316320957152
lhand -25.95227732290398 11.942842932122407
lfingers 7.125019999999999
lthumb 0.591817376251999 41.9142201043605
rclavicle -1.9806918087683668e-15 8.81551503550641e-16
rhumerus -31.30728715067658 3.5449714809211015 -91.58556522678892
rradius 71.10977882362097
rwrist -5.9092661393137185
rhand -17.768600320342703 30.888313962990786
rfingers 7.125019999999999
rthumb 8.493508247183858 1.2777719183856748
39
root -0.2871980913204282 17.93996384713007 15.245312722624789 2.3285509434879677 -3.2385267416328585 -7.54415639730893
lfemur -35.91027109896535 -2.472835405531609 -10.446319990813222
ltibia 32.33422284135979
lfoot -3.6420706021005347 5.204237035148518
ltoes -8.664923449215499
rfemur 9.523186234964125 6.1923516896813915 36.74490849846904
rtibia 29.97961755850118
rfoot -16.217637653505918 -7.003161146023259
rtoes 3.054202511804851
lowerback 11.861616562677675 2.703423828452405 7.979083335831621
upperback -0.5861243309450281 4.792365950468891 2.3070507010848367
thorax -7.0570290573336045 2.0861503317925485 -3.400898333024516
lowerneck -19.333296149943067 -3.8756010182334237 -1.4646315551814693
upperneck 16.91009835282207 -5.286483299833798 2.013368003707309
head 8.529463598986558 -2.368344875680678 0.26497081901656083
lclavicle -2.3339822840878035e-15 6.338443686069256e-16
lhumerus -51.645551199513065 -5.148836137875591 92.54600466109933
lradius 66.90994774560097
lwrist 19.99300980547016
lhand -26.174165244224227 12.172918697091182
lfingers 7.125019999999999
lthumb 0.3775387736285606 42.14400527178031
rclavicle -2.3339822840878035e-15 6.338443686069256e-16
rhumerus -29.141510634895617 4.876270767252557 -92.1248471701165
rradius 72.94300476846115
rwrist -6.680247234542
rhand -18.127208198426153 31.761885494844023
rfingers 7.125019999999999
rthumb 8.14741451316125 2.121184419672838
40
root -0.2328063456172349 17.72070508732963 16.35138216821373 2.8931789636763985 -3.8725208182904867 -7.740950407621863
lfemur -35.13465494001071 -5.47148587376978 -9.816577303596521
ltibia 19.629827588396825
lfoot -2.896387531676945 5.711942447483997
ltoes -8.54413162249967
rfemur 14.13669209817828 6.195298084101652 36.77248007999173
rtibia 28.859706001510137
rfoot -17.519312146311133 -6.179601848173865
rtoes -2.6247841743719125
lowerback 11.329169153273625 3.008176798910919 8.166173251933335
upperback -0.7168859681598743 5.194453585076044 2.200617665722783
thorax -6.902912963487054 2.271135328184081 -3.7189391547124435
lowerneck -19.6063221265373 -3.9488576914458164 -1.4252559818704902
upperneck 16.725375405051473 -5.425598757854908 2.1127191912764993
head 8.503532194513179 -2.4127178945396017 0.27380413023692096
lclavicle -2.6456239490320825e-15 4.1542956504573757e-16
lhumerus -53.37162582983631 -3.838022095115826 92.05987582972776
lradius 64.8121735061663
lwrist 18.801649838094495
lhand -26.121231778457044 12.415678268966056
lfingers 7.125019999999999
lthumb 0.4286780175508702 42.387442722459056
rclavicle -2.6456239490320825e-15 4.1542956504573757e-16
rhumerus -27.793874250826345 5.197407935174165 -92.30997974078461
rradius 73.91495099509666
rwrist -6.911800097791296
rhand -18.411141333147846 32.38303319331555
rfingers 7.125019999999999
rthumb 7.873363712231115 2.7223492328860113
41
root -0.1682037170922258 17.527904323621435 17.621240645896634 2.9025297507777807 -4.101918684466702 -7.5263882577020915
lfemur -33.87672599485573 -6.234135533920042 -10.467110904776424
ltibia 15.27737686961532
lfoot -1.4908226615192897 3.988467224704379
ltoes -8.230050208743926
rfemur 17.321495184706542 6.1072223711949505 36.14960925475496
rtibia 30.787084418862687
rfoot -16.517063344366328 -4.304190292527142
rtoes -8.637462877693814
lowerback 10.973854032735598 3.146124862705038 7.842711260968779
upperback -0.7936607862161698 5.31962173878733 2.019976607622274
thorax -6.816271325613206 2.338221013057888 -3.6927709569937726
lowerneck -19.555045045456875 -4.07816657987103 -1.4219116508096512
upperneck 16.704254244390736 -5.651180052726854 2.2389377564120005
head 8.491641322412463 -2.4965539273594444 0.2969425771101579
lclavicle -2.7418954962171566e-15 3.4806143599572273e-16
lhumerus -54.58445580041533 -2.1661085931695387 91.1824221442931
lradius 62.26822371096516
lwrist 16.959088825028623
lhand -25.754700092125915 12.782726675676582
lfingers 7.125019999999999
lthumb 0.7826653915862555 42.75712586127521
rclavicle -2.7418954962171566e-15 3.4806143599572273e-16
rhumerus -27.56130978424752 4.572520481673473 -92.22674068218696
rradius 74.24817014698787
rwrist -6.790319145960231
rhand -18.606578225162007 32.58497453537614
rfingers 7.125019999999999
rthumb 7.684748021237382 2.905272831658696
42
root -0.06449431838849527 17.4302859715642 18.852868577892362 2.3839553812195122 -3.799708093999909 -6.696829927232411
lfemur -32.44546683867942 -5.330331067097758 -12.33903787122954
ltibia 18.708079980115766
lfoot 0.5073696714383202 0.5966446335261284
ltoes -7.289093084151965
rfemur 18.666819645570556 5.473536766415069 34.78270985019436
rtibia 37.18332373636646
rfoot -10.620014833576182 -1.0646550008978597
rtoes -11.399252336696284
lowerback 10.774236242524324 3.186705721546277 7.14438101534456
upperback -0.8467287744494808 5.264891931411784 1.715874285311307
thorax -6.795448724689466 2.329606421026403 -3.4347969979560062
lowerneck -19.24693238145497 -4.292640055298891 -1.4624838497679198
upperneck 16.88642780710461 -5.973153095692298 2.403661195870413
head 8.513830212394929 -2.6338073811075002 0.3400697003447825
lclavicle -2.386145248577902e-15 5.975673440475492e-16
lhumerus -55.448442874431045 -0.28223004352219494 90.07636783257955
lradius 59.683448158933814
lwrist 14.978111363309075
lhand -24.996174912495306 13.230938215242434
lfingers 7.125019999999999
lthumb 1.5152047112564442 43.20376733500439
rclavicle -2.386145248577902e-15 5.975673440475492e-16
rhumerus -28.361123065188053 3.2690247696787624 -91.80865083334228
rradius 74.09588631922946
rwrist -6.313868699816556
rhand -18.640492825350858 32.52289517250778
rfingers 7.125019999999999
rthumb 7.652011803324311 2.8327248674586447
